<svg viewBox="0 0 200 200" xmlns="http://www.w3.org/2000/svg">
  <path transform="translate(100 100)" d="M45.1,-77.7C59.2,-70.1,71.7,-59.3,78.4,-45.9C85.1,-32.4,86,-16.2,85.6,-0.2C85.2,15.8,83.5,31.5,75.6,42.9C67.7,54.3,53.6,61.4,40,69.8C26.3,78.3,13.2,88.1,-1.3,90.4C-15.8,92.7,-31.6,87.3,-45.2,78.9C-58.9,70.5,-70.5,58.9,-76.6,45.3C-82.7,31.6,-83.3,15.8,-81,1.4C-78.6,-13.1,-73.3,-26.2,-66.5,-38.6C-59.7,-51,-51.3,-62.7,-40,-71.8C-28.7,-81,-14.3,-87.5,0.6,-88.6C15.6,-89.6,31.1,-85.2,45.1,-77.7Z" />
</svg>